<svg width="28" height="29" viewBox="0 0 28 29" fill="none" xmlns="http://www.w3.org/2000/svg">
<path d="M27 16.5C27 18.6756 26.3549 20.8023 25.1462 22.6113C23.9375 24.4202 22.2195 25.8301 20.2095 26.6627C18.1995 27.4952 15.9878 27.7131 13.854 27.2886C11.7202 26.8642 9.76021 25.8166 8.22183 24.2782C6.68345 22.7398 5.6358 20.7798 5.21137 18.646C4.78693 16.5122 5.00477 14.3005 5.83733 12.2905C6.66989 10.2805 8.07979 8.56253 9.88873 7.35383C11.6977 6.14514 13.8244 5.5 16 5.5C18.9174 5.5 21.7153 6.65893 23.7782 8.72183C25.8411 10.7847 27 13.5826 27 16.5Z" fill="#1C1C1C" fill-opacity="0.1"/>
<path d="M17 10.5V15.9337L21.515 18.6425C21.7424 18.7791 21.9063 19.0004 21.9705 19.2578C22.0347 19.5152 21.9941 19.7876 21.8575 20.015C21.7209 20.2424 21.4996 20.4062 21.2422 20.4705C20.9848 20.5347 20.7124 20.4941 20.485 20.3575L15.485 17.3575C15.337 17.2686 15.2146 17.1429 15.1296 16.9926C15.0446 16.8423 14.9999 16.6726 15 16.5V10.5C15 10.2348 15.1054 9.98041 15.2929 9.79287C15.4804 9.60533 15.7348 9.49998 16 9.49998C16.2652 9.49998 16.5196 9.60533 16.7071 9.79287C16.8946 9.98041 17 10.2348 17 10.5ZM16 4.49998C14.4225 4.49605 12.8599 4.80502 11.4026 5.40901C9.94527 6.013 8.62222 6.90002 7.51 8.01873C6.60125 8.93873 5.79375 9.82373 5 10.75V8.49998C5 8.23476 4.89464 7.98041 4.70711 7.79287C4.51957 7.60533 4.26522 7.49998 4 7.49998C3.73478 7.49998 3.48043 7.60533 3.29289 7.79287C3.10536 7.98041 3 8.23476 3 8.49998V13.5C3 13.7652 3.10536 14.0195 3.29289 14.2071C3.48043 14.3946 3.73478 14.5 4 14.5H9C9.26522 14.5 9.51957 14.3946 9.70711 14.2071C9.89464 14.0195 10 13.7652 10 13.5C10 13.2348 9.89464 12.9804 9.70711 12.7929C9.51957 12.6053 9.26522 12.5 9 12.5H6.125C7.01875 11.4475 7.90875 10.4562 8.92375 9.42873C10.3136 8.03892 12.0821 7.08949 14.0085 6.69907C15.9348 6.30866 17.9335 6.49457 19.7547 7.23358C21.576 7.97259 23.1391 9.23193 24.2487 10.8542C25.3584 12.4765 25.9653 14.3899 25.9938 16.3552C26.0222 18.3205 25.4708 20.2505 24.4086 21.9043C23.3464 23.558 21.8203 24.862 20.0212 25.6534C18.2221 26.4448 16.2296 26.6884 14.2928 26.3539C12.356 26.0194 10.5607 25.1215 9.13125 23.7725C9.03571 23.6822 8.92333 23.6116 8.80052 23.5648C8.6777 23.5179 8.54686 23.4957 8.41547 23.4994C8.28407 23.5031 8.15469 23.5327 8.03472 23.5864C7.91475 23.6401 7.80653 23.7169 7.71625 23.8125C7.62597 23.908 7.55538 24.0204 7.50853 24.1432C7.46168 24.266 7.43948 24.3969 7.44319 24.5283C7.44691 24.6597 7.47647 24.789 7.53018 24.909C7.58389 25.029 7.66071 25.1372 7.75625 25.2275C9.18056 26.5716 10.9122 27.5466 12.8 28.0676C14.6878 28.5886 16.6744 28.6396 18.5865 28.2162C20.4986 27.7928 22.278 26.9079 23.7694 25.6386C25.2608 24.3694 26.4189 22.7545 27.1427 20.9347C27.8664 19.115 28.1338 17.1458 27.9215 15.199C27.7091 13.2521 27.0236 11.3868 25.9246 9.76589C24.8256 8.14495 23.3466 6.8176 21.6166 5.8997C19.8867 4.98181 17.9584 4.50125 16 4.49998Z" fill="#1C1C1C"/>
</svg>
