<svg width="14" height="14" viewBox="0 0 14 14" fill="none" xmlns="http://www.w3.org/2000/svg">
<path d="M13.35 13.8562C13.2566 13.9481 13.131 13.9998 13 14C12.8672 13.9994 12.7397 13.948 12.6437 13.8562L9.94372 11.15C8.80659 12.1051 7.34462 12.5844 5.86273 12.4878C4.38083 12.3912 2.99343 11.7263 1.98988 10.6316C0.986331 9.53698 0.444121 8.09717 0.476333 6.61248C0.508545 5.12779 1.11269 3.71286 2.16277 2.66277C3.21286 1.61269 4.62779 1.00855 6.11248 0.976333C7.59717 0.944121 9.03698 1.48633 10.1316 2.48988C11.2263 3.49343 11.8912 4.88083 11.9878 6.36273C12.0844 7.84462 11.6051 9.30659 10.65 10.4437L13.35 13.1437C13.3972 13.1903 13.4347 13.2457 13.4603 13.3069C13.486 13.368 13.4991 13.4337 13.4991 13.5C13.4991 13.5663 13.486 13.6319 13.4603 13.6931C13.4347 13.7542 13.3972 13.8097 13.35 13.8562ZM6.24997 11.5C7.18944 11.5 8.1078 11.2214 8.88893 10.6995C9.67007 10.1775 10.2789 9.43567 10.6384 8.56772C10.9979 7.69977 11.092 6.74471 10.9087 5.8233C10.7254 4.90189 10.273 4.05552 9.60873 3.39122C8.94443 2.72692 8.09806 2.27452 7.17665 2.09124C6.25524 1.90797 5.30018 2.00203 4.43223 2.36155C3.56428 2.72106 2.82243 3.32988 2.30049 4.11102C1.77856 4.89215 1.49997 5.81051 1.49997 6.74998C1.50163 8.00925 2.0026 9.21647 2.89304 10.1069C3.78348 10.9973 4.9907 11.4983 6.24997 11.5Z" fill="#1C1C1C" fill-opacity="0.2"/>
</svg>
