<svg width="29" height="28" viewBox="0 0 29 28" fill="none" xmlns="http://www.w3.org/2000/svg">
<path d="M11 6.5V26.5H5C4.73478 26.5 4.48043 26.3946 4.29289 26.2071C4.10536 26.0196 4 25.7652 4 25.5V7.5C4 7.23478 4.10536 6.98043 4.29289 6.79289C4.48043 6.60536 4.73478 6.5 5 6.5H11Z" fill="#1C1C1C" fill-opacity="0.1"/>
<path d="M27 5.5H5C4.46957 5.5 3.96086 5.71071 3.58579 6.08579C3.21071 6.46086 3 6.96957 3 7.5V25.5C3 26.0304 3.21071 26.5391 3.58579 26.9142C3.96086 27.2893 4.46957 27.5 5 27.5H27C27.5304 27.5 28.0391 27.2893 28.4142 26.9142C28.7893 26.5391 29 26.0304 29 25.5V7.5C29 6.96957 28.7893 6.46086 28.4142 6.08579C28.0391 5.71071 27.5304 5.5 27 5.5ZM5 19.5H7C7.26522 19.5 7.51957 19.3946 7.70711 19.2071C7.89464 19.0196 8 18.7652 8 18.5C8 18.2348 7.89464 17.9804 7.70711 17.7929C7.51957 17.6054 7.26522 17.5 7 17.5H5V15.5H7C7.26522 15.5 7.51957 15.3946 7.70711 15.2071C7.89464 15.0196 8 14.7652 8 14.5C8 14.2348 7.89464 13.9804 7.70711 13.7929C7.51957 13.6054 7.26522 13.5 7 13.5H5V11.5H7C7.26522 11.5 7.51957 11.3946 7.70711 11.2071C7.89464 11.0196 8 10.7652 8 10.5C8 10.2348 7.89464 9.98043 7.70711 9.79289C7.51957 9.60536 7.26522 9.5 7 9.5H5V7.5H10V25.5H5V19.5ZM27 25.5H12V7.5H27V25.5Z" fill="#1C1C1C"/>
</svg>
